<svg id="kity_svg_6" xmlns="http://www.w3.org/2000/svg" xmlns:xlink="http://www.w3.org/1999/xlink" version="1.1" width="586" height="251" style="background: rgb(251, 251, 251); visibility: visible;" viewBox="0 0 586 251"><defs id="kity_defs_7"><linearGradient id="kity_linearGradient_17" x1="0" y1="0" x2="0" y2="1"><stop id="kity_stop_18" offset="0" stop-color="rgb(255, 255, 255)"></stop><stop id="kity_stop_19" offset="1" stop-color="rgb(204, 204, 204)"></stop></linearGradient><marker id="kity_marker_2" orient="auto" refX="6" refY="0" viewBox="-7 -7 14 14" markerWidth="7" markerHeight="7" markerUnits="userSpaceOnUse"><path id="kity_path_3" fill="rgb(115, 161, 191)" stroke="none" d="M6,0A6,6,0,1,1,-6,0A6,6,0,1,1,6,0"></path></marker></defs><g id="kity_g_8"><g id="minder1" text-rendering="optimize-speed"><g id="minder_connect_group1"><path id="kity_path_31" fill="none" stroke="rgb(115, 161, 191)" stroke-width="1" d="M401.50000394135714,40.500006921589375C421.50000394135714,40.500006921589375,421.50000394135714,40.500006921589375,441.50000394135714,40.500006921589375"></path><path id="kity_path_40" fill="none" stroke="rgb(115, 161, 191)" stroke-width="1" d="M117.00000394135714,125.50000692158937A214.5,4,0,0,0,331.50000394135714,129.50000692158937"></path><path id="kity_path_48" fill="none" stroke="rgb(115, 161, 191)" stroke-width="1" d="M117.00000394135714,125.50000692158937A214.5,86,0,0,0,331.50000394135714,211.50000692158937"></path><path id="kity_path_56" fill="none" stroke="rgb(115, 161, 191)" stroke-width="1" d="M117.00000394135714,125.50000692158937A214.5,85,0,0,1,331.50000394135714,40.500006921589375"></path><path id="kity_path_72" fill="none" stroke="rgb(115, 161, 191)" stroke-width="1" d="M429.50000394135714,129.50000692158937C449.50000394135714,129.50000692158937,449.50000394135714,129.50000692158937,469.50000394135714,129.50000692158937"></path><path id="kity_path_82" fill="none" stroke="rgb(115, 161, 191)" stroke-width="1" d="M429.50000394135714,211.50000692158937C449.50000394135714,211.50000692158937,449.50000394135714,211.50000692158937,469.50000394135714,211.50000692158937"></path></g><g id="minder_node1"><path id="node_outline1" fill="rgb(115, 161, 191)" stroke="rgb(115, 161, 191)" d="M25.500003941357136,105.50000692158937h183a5,5,0,0,1,5,5v30a5,5,0,0,1,-5,5h-183a5,5,0,0,1,-5,-5v-30a5,5,0,0,1,5,-5z" stroke-width="3"></path><g id="node_text1" fill="white"><text id="kity_text_22" text-rendering="inherit" font-size="16" dy=".8em" y="115.10000688582659" x="44.500003941357136">名词性从句的连接词</text></g></g><g id="kity_g_12"><path id="kity_path_13" fill="none" stroke="none" d="M44.500003941357136,125.50000692158937h0v0h0z"></path></g><g id="kity_g_14"><path id="kity_path_15" fill="none" stroke="none" d="M44.500003941357136,125.50000692158937h0v0h0z"></path><path id="kity_path_16" fill="none" stroke="none"></path></g><g id="minder_node2"><g id="node_expander1" style="cursor: pointer;" display="none"><path id="kity_path_36" fill="white" stroke="gray" d="M441.50000976771116,40.50000565499067A6,6,0,1,1,429.50000976771116,40.50000565499067A6,6,0,1,1,441.50000976771116,40.50000565499067"></path><path id="kity_path_37" fill="none" stroke="gray"></path></g><path id="node_outline2" fill="none" stroke="none" d="M446.50001000612974,20.500005654990673h58a5,5,0,0,1,5,5v30a5,5,0,0,1,-5,5h-58a5,5,0,0,1,-5,-5v-30a5,5,0,0,1,5,-5z" stroke-width="3"></path><g id="node_text2" fill="black"><text id="kity_text_33" text-rendering="inherit" font-size="12" dy=".8em" y="23.700005628168583" x="451.50001000612974">that，if</text><text id="kity_text_38" text-rendering="inherit" font-size="12" dy=".8em" y="41.70000562816858" x="451.50001000612974">wehther</text></g></g><g id="minder_node3"><g id="node_expander2" style="cursor: pointer;"><path id="kity_path_45" fill="white" stroke="gray" d="M332.5000081434846,129.50000698119402A6,6,0,1,1,320.5000081434846,129.50000698119402A6,6,0,1,1,332.5000081434846,129.50000698119402"></path><path id="kity_path_46" fill="none" stroke="gray" d="M322.0000081434846,129.50000698119402L331.0000081434846,129.50000698119402"></path></g><path id="node_outline3" fill="rgb(238, 243, 246)" stroke="rgb(115, 161, 191)" d="M336.50000854581594,116.50000698119402h90a3,3,0,0,1,3,3v20a3,3,0,0,1,-3,3h-90a3,3,0,0,1,-3,-3v-20a3,3,0,0,1,3,-3z" stroke-width="1"></path><g id="node_text3" fill="black"><text id="kity_text_42" text-rendering="inherit" font-size="14" dy=".8em" y="120.40000694990158" x="353.50000854581594">连接代词</text></g></g><g id="minder_node4"><g id="node_expander3" style="cursor: pointer;"><path id="kity_path_53" fill="white" stroke="gray" d="M332.5000081434846,211.50000820308924A6,6,0,1,1,320.5000081434846,211.50000820308924A6,6,0,1,1,332.5000081434846,211.50000820308924"></path><path id="kity_path_54" fill="none" stroke="gray" d="M322.0000081434846,211.50000820308924L331.0000081434846,211.50000820308924"></path></g><path id="node_outline4" fill="rgb(238, 243, 246)" stroke="rgb(115, 161, 191)" d="M336.50000854581594,198.50000820308924h90a3,3,0,0,1,3,3v20a3,3,0,0,1,-3,3h-90a3,3,0,0,1,-3,-3v-20a3,3,0,0,1,3,-3z" stroke-width="1"></path><g id="node_text4" fill="black"><text id="kity_text_50" text-rendering="inherit" font-size="14" dy=".8em" y="202.4000081717968" x="353.50000854581594">连接副词</text></g></g><g id="minder_node5"><g id="node_expander4" style="cursor: pointer;"><path id="kity_path_61" fill="white" stroke="gray" d="M332.5000081434846,40.50000565499067A6,6,0,1,1,320.5000081434846,40.50000565499067A6,6,0,1,1,332.5000081434846,40.50000565499067"></path><path id="kity_path_62" fill="none" stroke="gray" d="M322.0000081434846,40.50000565499067L331.0000081434846,40.50000565499067"></path></g><path id="node_outline5" fill="rgb(238, 243, 246)" stroke="rgb(115, 161, 191)" d="M336.50000854581594,27.500005654990673h62a3,3,0,0,1,3,3v20a3,3,0,0,1,-3,3h-62a3,3,0,0,1,-3,-3v-20a3,3,0,0,1,3,-3z" stroke-width="1"></path><g id="node_text5" fill="black"><text id="kity_text_58" text-rendering="inherit" font-size="14" dy=".8em" y="31.400005623698235" x="353.50000854581594">连词</text></g></g><g id="minder_node7"><g id="node_expander6" style="cursor: pointer;" display="none"><path id="kity_path_77" fill="white" stroke="gray" d="M469.5000101849437,129.50000698119402A6,6,0,1,1,457.5000101849437,129.50000698119402A6,6,0,1,1,469.5000101849437,129.50000698119402"></path><path id="kity_path_78" fill="none" stroke="gray"></path></g><path id="node_outline7" fill="none" stroke="none" d="M474.50001042336226,100.50000698119402h87a5,5,0,0,1,5,5v48a5,5,0,0,1,-5,5h-87a5,5,0,0,1,-5,-5v-48a5,5,0,0,1,5,-5z" stroke-width="3"></path><g id="node_text7" fill="black"><text id="kity_text_74" text-rendering="inherit" font-size="12" dy=".8em" y="103.70000695437193" x="479.50001042336226">who，whom,</text><text id="kity_text_79" text-rendering="inherit" font-size="12" dy=".8em" y="121.70000695437193" x="479.50001042336226">whose,which,</text><text id="kity_text_80" text-rendering="inherit" font-size="12" dy=".8em" y="139.70000695437193" x="479.50001042336226">what</text></g></g><g id="minder_node8"><g id="node_expander7" style="cursor: pointer;" display="none"><path id="kity_path_87" fill="white" stroke="gray" d="M469.5000101849437,211.50000820308924A6,6,0,1,1,457.5000101849437,211.50000820308924A6,6,0,1,1,469.5000101849437,211.50000820308924"></path><path id="kity_path_88" fill="none" stroke="gray"></path></g><path id="node_outline8" fill="none" stroke="none" d="M474.50001042336226,191.50000820308924h83a5,5,0,0,1,5,5v30a5,5,0,0,1,-5,5h-83a5,5,0,0,1,-5,-5v-30a5,5,0,0,1,5,-5z" stroke-width="3"></path><g id="node_text8" fill="black"><text id="kity_text_84" text-rendering="inherit" font-size="12" dy=".8em" y="194.70000817626715" x="479.50001042336226">when,where,</text><text id="kity_text_89" text-rendering="inherit" font-size="12" dy=".8em" y="212.70000817626715" x="479.50001042336226">why,how</text></g></g></g></g></svg>