<svg id="kity_svg_6" xmlns="http://www.w3.org/2000/svg" xmlns:xlink="http://www.w3.org/1999/xlink" version="1.1" width="745" height="594" style="background: rgb(251, 251, 251); visibility: visible;" viewBox="0 0 745 594"><defs id="kity_defs_7"><linearGradient id="kity_linearGradient_17" x1="0" y1="0" x2="0" y2="1"><stop id="kity_stop_18" offset="0" stop-color="rgb(255, 255, 255)"></stop><stop id="kity_stop_19" offset="1" stop-color="rgb(204, 204, 204)"></stop></linearGradient><marker id="kity_marker_2" orient="auto" refX="6" refY="0" viewBox="-7 -7 14 14" markerWidth="7" markerHeight="7" markerUnits="userSpaceOnUse"><path id="kity_path_3" fill="rgb(115, 161, 191)" stroke="none" d="M6,0A6,6,0,1,1,-6,0A6,6,0,1,1,6,0"></path></marker></defs><g id="kity_g_8"><g id="minder1" text-rendering="optimize-speed"><g id="minder_connect_group1"><path id="kity_path_31" fill="none" stroke="rgb(115, 161, 191)" stroke-width="1" d="M120.50000485032797,297.5000068321824A218,264,0,0,1,338.50000485032797,33.50000683218241"></path><path id="kity_path_39" fill="none" stroke="rgb(115, 161, 191)" stroke-width="1" d="M414.50000485032797,33.50000683218241C434.50000485032797,33.50000683218241,434.50000485032797,33.50000683218241,454.50000485032797,33.50000683218241"></path><path id="kity_path_47" fill="none" stroke="rgb(115, 161, 191)" stroke-width="1" d="M582.500004850328,33.50000683218241C602.500004850328,33.50000683218241,602.500004850328,33.50000683218241,622.500004850328,33.50000683218241"></path><path id="kity_path_55" fill="none" stroke="rgb(115, 161, 191)" stroke-width="1" d="M120.50000485032797,297.5000068321824A218,198,0,0,1,338.50000485032797,99.50000683218241"></path><path id="kity_path_63" fill="none" stroke="rgb(115, 161, 191)" stroke-width="1" d="M409.50000485032797,99.50000683218241C429.50000485032797,99.50000683218241,429.50000485032797,99.50000683218241,449.50000485032797,99.50000683218241"></path><path id="kity_path_71" fill="none" stroke="rgb(115, 161, 191)" stroke-width="1" d="M120.50000485032797,297.5000068321824A218,132,0,0,1,338.50000485032797,165.5000068321824"></path><path id="kity_path_79" fill="none" stroke="rgb(115, 161, 191)" stroke-width="1" d="M120.50000485032797,297.5000068321824A218,66,0,0,1,338.50000485032797,231.5000068321824"></path><path id="kity_path_87" fill="none" stroke="rgb(115, 161, 191)" stroke-width="1" d="M120.50000485032797,297.5000068321824A218,0,0,0,1,338.50000485032797,297.5000068321824"></path><path id="kity_path_95" fill="none" stroke="rgb(115, 161, 191)" stroke-width="1" d="M423.50000485032797,165.5000068321824C443.50000485032797,165.5000068321824,443.50000485032797,165.5000068321824,463.50000485032797,165.5000068321824"></path><path id="kity_path_103" fill="none" stroke="rgb(115, 161, 191)" stroke-width="1" d="M420.50000485032797,231.5000068321824C440.50000485032797,231.5000068321824,440.50000485032797,231.5000068321824,460.50000485032797,231.5000068321824"></path><path id="kity_path_111" fill="none" stroke="rgb(115, 161, 191)" stroke-width="1" d="M517.500004850328,231.5000068321824C537.500004850328,231.5000068321824,537.500004850328,231.5000068321824,557.500004850328,231.5000068321824"></path><path id="kity_path_119" fill="none" stroke="rgb(115, 161, 191)" stroke-width="1" d="M424.50000485032797,297.5000068321824C444.50000485032797,297.5000068321824,444.50000485032797,297.5000068321824,464.50000485032797,297.5000068321824"></path><path id="kity_path_135" fill="none" stroke="rgb(115, 161, 191)" stroke-width="1" d="M509.50000485032797,297.5000068321824C529.500004850328,297.5000068321824,529.500004850328,297.5000068321824,549.500004850328,297.5000068321824"></path><path id="kity_path_143" fill="none" stroke="rgb(115, 161, 191)" stroke-width="1" d="M496.50000485032797,165.5000068321824C516.500004850328,165.5000068321824,516.500004850328,165.5000068321824,536.500004850328,165.5000068321824"></path><path id="kity_path_151" fill="none" stroke="rgb(115, 161, 191)" stroke-width="1" d="M482.50000485032797,99.50000683218241C502.50000485032797,99.50000683218241,502.50000485032797,99.50000683218241,522.500004850328,99.50000683218241"></path><path id="kity_path_159" fill="none" stroke="rgb(115, 161, 191)" stroke-width="1" d="M120.50000485032797,297.5000068321824A218,66,0,0,0,338.50000485032797,363.5000068321824"></path><path id="kity_path_167" fill="none" stroke="rgb(115, 161, 191)" stroke-width="1" d="M443.50000485032797,363.5000068321824C463.50000485032797,363.5000068321824,463.50000485032797,363.5000068321824,483.50000485032797,363.5000068321824"></path><path id="kity_path_183" fill="none" stroke="rgb(115, 161, 191)" stroke-width="1" d="M551.500004850328,363.5000068321824C571.500004850328,363.5000068321824,571.500004850328,363.5000068321824,591.500004850328,363.5000068321824"></path><path id="kity_path_191" fill="none" stroke="rgb(115, 161, 191)" stroke-width="1" d="M120.50000485032797,297.5000068321824A218,132,0,0,0,338.50000485032797,429.5000068321824"></path><path id="kity_path_199" fill="none" stroke="rgb(115, 161, 191)" stroke-width="1" d="M439.50000485032797,429.5000068321824C459.50000485032797,429.5000068321824,459.50000485032797,429.5000068321824,479.50000485032797,429.5000068321824"></path><path id="kity_path_207" fill="none" stroke="rgb(115, 161, 191)" stroke-width="1" d="M535.500004850328,429.5000068321824C555.500004850328,429.5000068321824,555.500004850328,429.5000068321824,575.500004850328,429.5000068321824"></path><path id="kity_path_231" fill="none" stroke="rgb(115, 161, 191)" stroke-width="1" d="M120.50000485032797,297.5000068321824A218,264,0,0,0,338.50000485032797,561.5000068321824"></path><path id="kity_path_247" fill="none" stroke="rgb(115, 161, 191)" stroke-width="1" d="M449.50000485032797,561.5000068321824C469.50000485032797,561.5000068321824,469.50000485032797,561.5000068321824,489.50000485032797,561.5000068321824"></path><path id="kity_path_255" fill="none" stroke="rgb(115, 161, 191)" stroke-width="1" d="M570.500004850328,561.5000068321824C590.500004850328,561.5000068321824,590.500004850328,561.5000068321824,610.500004850328,561.5000068321824"></path><path id="kity_path_271" fill="none" stroke="rgb(115, 161, 191)" stroke-width="1" d="M120.50000485032797,297.5000068321824A218,198,0,0,0,338.50000485032797,495.5000068321824"></path><path id="kity_path_279" fill="none" stroke="rgb(115, 161, 191)" stroke-width="1" d="M452.50000485032797,495.5000068321824C472.50000485032797,495.5000068321824,472.50000485032797,495.5000068321824,492.50000485032797,495.5000068321824"></path></g><g id="minder_node1"><path id="node_outline1" fill="rgb(115, 161, 191)" stroke="rgb(115, 161, 191)" d="M25.50000485032797,277.5000068321824h190a5,5,0,0,1,5,5v30a5,5,0,0,1,-5,5h-190a5,5,0,0,1,-5,-5v-30a5,5,0,0,1,5,-5z" stroke-width="3"></path><g id="node_text1" fill="white"><text id="kity_text_22" text-rendering="inherit" font-size="16" dy=".8em" y="287.1000067964196" x="44.50000485032797">名词性从句-连接代词</text></g></g><g id="kity_g_12"><path id="kity_path_13" fill="none" stroke="none" d="M44.50000485032797,297.5000068321824h0v0h0z"></path></g><g id="kity_g_14"><path id="kity_path_15" fill="none" stroke="none" d="M44.50000485032797,297.5000068321824h0v0h0z"></path><path id="kity_path_16" fill="none" stroke="none"></path></g><g id="minder_node2"><g id="node_expander1" style="cursor: pointer;"><path id="kity_path_36" fill="white" stroke="gray" d="M339.50000915676355,33.50000289827585A6,6,0,1,1,327.50000915676355,33.50000289827585A6,6,0,1,1,339.50000915676355,33.50000289827585"></path><path id="kity_path_37" fill="none" stroke="gray" d="M329.00000915676355,33.50000289827585L338.00000915676355,33.50000289827585"></path></g><path id="node_outline2" fill="rgb(238, 243, 246)" stroke="rgb(115, 161, 191)" d="M343.5000095590949,20.500002898275852h68a3,3,0,0,1,3,3v20a3,3,0,0,1,-3,3h-68a3,3,0,0,1,-3,-3v-20a3,3,0,0,1,3,-3z" stroke-width="1"></path><g id="node_text2" fill="black"><text id="kity_text_33" text-rendering="inherit" font-size="14" dy=".8em" y="24.400002866983414" x="360.5000095590949">what</text></g></g><g id="minder_node3"><g id="node_expander2" style="cursor: pointer;"><path id="kity_path_44" fill="white" stroke="gray" d="M454.5000108703971,33.50000289827585A6,6,0,1,1,442.5000108703971,33.50000289827585A6,6,0,1,1,454.5000108703971,33.50000289827585"></path><path id="kity_path_45" fill="none" stroke="gray" d="M444.0000108703971,33.50000289827585L453.0000108703971,33.50000289827585"></path></g><path id="node_outline3" fill="none" stroke="none" d="M459.50001110881567,22.500002898275852h118a5,5,0,0,1,5,5v12a5,5,0,0,1,-5,5h-118a5,5,0,0,1,-5,-5v-12a5,5,0,0,1,5,-5z" stroke-width="3"></path><g id="node_text3" fill="black"><text id="kity_text_41" text-rendering="inherit" font-size="12" dy=".8em" y="25.700002871453762" x="464.50001110881567">什么;所...的;...的东西</text></g></g><g id="minder_node4"><g id="node_expander3" style="cursor: pointer;" display="none"><path id="kity_path_52" fill="white" stroke="gray" d="M622.5000133737922,33.50000289827585A6,6,0,1,1,610.5000133737922,33.50000289827585A6,6,0,1,1,622.5000133737922,33.50000289827585"></path><path id="kity_path_53" fill="none" stroke="gray"></path></g><path id="node_outline4" fill="none" stroke="none" d="M627.5000136122108,22.500002898275852h93a5,5,0,0,1,5,5v12a5,5,0,0,1,-5,5h-93a5,5,0,0,1,-5,-5v-12a5,5,0,0,1,5,-5z" stroke-width="3"></path><g id="node_text4" fill="black"><text id="kity_text_49" text-rendering="inherit" font-size="12" dy=".8em" y="25.700002871453762" x="632.5000136122108">主语/宾语/表语</text></g></g><g id="minder_node5"><g id="node_expander4" style="cursor: pointer;"><path id="kity_path_60" fill="white" stroke="gray" d="M339.50000915676355,99.50000388175249A6,6,0,1,1,327.50000915676355,99.50000388175249A6,6,0,1,1,339.50000915676355,99.50000388175249"></path><path id="kity_path_61" fill="none" stroke="gray" d="M329.00000915676355,99.50000388175249L338.00000915676355,99.50000388175249"></path></g><path id="node_outline5" fill="rgb(238, 243, 246)" stroke="rgb(115, 161, 191)" d="M343.5000095590949,86.50000388175249h63a3,3,0,0,1,3,3v20a3,3,0,0,1,-3,3h-63a3,3,0,0,1,-3,-3v-20a3,3,0,0,1,3,-3z" stroke-width="1"></path><g id="node_text5" fill="black"><text id="kity_text_57" text-rendering="inherit" font-size="14" dy=".8em" y="90.40000385046005" x="360.5000095590949">who</text></g></g><g id="minder_node6"><g id="node_expander5" style="cursor: pointer;"><path id="kity_path_68" fill="white" stroke="gray" d="M449.5000107958913,99.50000388175249A6,6,0,1,1,437.5000107958913,99.50000388175249A6,6,0,1,1,449.5000107958913,99.50000388175249"></path><path id="kity_path_69" fill="none" stroke="gray" d="M439.0000107958913,99.50000388175249L448.0000107958913,99.50000388175249"></path></g><path id="node_outline6" fill="none" stroke="none" d="M454.50001103430986,88.50000388175249h23a5,5,0,0,1,5,5v12a5,5,0,0,1,-5,5h-23a5,5,0,0,1,-5,-5v-12a5,5,0,0,1,5,-5z" stroke-width="3"></path><g id="node_text6" fill="black"><text id="kity_text_65" text-rendering="inherit" font-size="12" dy=".8em" y="91.7000038549304" x="459.50001103430986">谁</text></g></g><g id="minder_node7"><g id="node_expander6" style="cursor: pointer;"><path id="kity_path_76" fill="white" stroke="gray" d="M339.50000915676355,165.50000486522913A6,6,0,1,1,327.50000915676355,165.50000486522913A6,6,0,1,1,339.50000915676355,165.50000486522913"></path><path id="kity_path_77" fill="none" stroke="gray" d="M329.00000915676355,165.50000486522913L338.00000915676355,165.50000486522913"></path></g><path id="node_outline7" fill="rgb(238, 243, 246)" stroke="rgb(115, 161, 191)" d="M343.5000095590949,152.50000486522913h77a3,3,0,0,1,3,3v20a3,3,0,0,1,-3,3h-77a3,3,0,0,1,-3,-3v-20a3,3,0,0,1,3,-3z" stroke-width="1"></path><g id="node_text7" fill="black"><text id="kity_text_73" text-rendering="inherit" font-size="14" dy=".8em" y="156.4000048339367" x="360.5000095590949">whom</text></g></g><g id="minder_node8"><g id="node_expander7" style="cursor: pointer;"><path id="kity_path_84" fill="white" stroke="gray" d="M339.50000915676355,231.50000584870577A6,6,0,1,1,327.50000915676355,231.50000584870577A6,6,0,1,1,339.50000915676355,231.50000584870577"></path><path id="kity_path_85" fill="none" stroke="gray" d="M329.00000915676355,231.50000584870577L338.00000915676355,231.50000584870577"></path></g><path id="node_outline8" fill="rgb(238, 243, 246)" stroke="rgb(115, 161, 191)" d="M343.5000095590949,218.50000584870577h74a3,3,0,0,1,3,3v20a3,3,0,0,1,-3,3h-74a3,3,0,0,1,-3,-3v-20a3,3,0,0,1,3,-3z" stroke-width="1"></path><g id="node_text8" fill="black"><text id="kity_text_81" text-rendering="inherit" font-size="14" dy=".8em" y="222.40000581741333" x="360.5000095590949">which</text></g></g><g id="minder_node9"><g id="node_expander8" style="cursor: pointer;"><path id="kity_path_92" fill="white" stroke="gray" d="M339.50000915676355,297.5000068321824A6,6,0,1,1,327.50000915676355,297.5000068321824A6,6,0,1,1,339.50000915676355,297.5000068321824"></path><path id="kity_path_93" fill="none" stroke="gray" d="M329.00000915676355,297.5000068321824L338.00000915676355,297.5000068321824"></path></g><path id="node_outline9" fill="rgb(238, 243, 246)" stroke="rgb(115, 161, 191)" d="M343.5000095590949,284.5000068321824h78a3,3,0,0,1,3,3v20a3,3,0,0,1,-3,3h-78a3,3,0,0,1,-3,-3v-20a3,3,0,0,1,3,-3z" stroke-width="1"></path><g id="node_text9" fill="black"><text id="kity_text_89" text-rendering="inherit" font-size="14" dy=".8em" y="288.40000680088997" x="360.5000095590949">whose</text></g></g><g id="minder_node10"><g id="node_expander9" style="cursor: pointer;"><path id="kity_path_100" fill="white" stroke="gray" d="M463.50001100450754,165.50000486522913A6,6,0,1,1,451.50001100450754,165.50000486522913A6,6,0,1,1,463.50001100450754,165.50000486522913"></path><path id="kity_path_101" fill="none" stroke="gray" d="M453.00001100450754,165.50000486522913L462.00001100450754,165.50000486522913"></path></g><path id="node_outline10" fill="none" stroke="none" d="M468.5000112429261,154.50000486522913h23a5,5,0,0,1,5,5v12a5,5,0,0,1,-5,5h-23a5,5,0,0,1,-5,-5v-12a5,5,0,0,1,5,-5z" stroke-width="3"></path><g id="node_text10" fill="black"><text id="kity_text_97" text-rendering="inherit" font-size="12" dy=".8em" y="157.70000483840704" x="473.5000112429261">谁</text></g></g><g id="minder_node11"><g id="node_expander10" style="cursor: pointer;"><path id="kity_path_108" fill="white" stroke="gray" d="M460.50001095980406,231.50000584870577A6,6,0,1,1,448.50001095980406,231.50000584870577A6,6,0,1,1,460.50001095980406,231.50000584870577"></path><path id="kity_path_109" fill="none" stroke="gray" d="M450.00001095980406,231.50000584870577L459.00001095980406,231.50000584870577"></path></g><path id="node_outline11" fill="none" stroke="none" d="M465.50001119822264,220.50000584870577h47a5,5,0,0,1,5,5v12a5,5,0,0,1,-5,5h-47a5,5,0,0,1,-5,-5v-12a5,5,0,0,1,5,-5z" stroke-width="3"></path><g id="node_text11" fill="black"><text id="kity_text_105" text-rendering="inherit" font-size="12" dy=".8em" y="223.70000582188368" x="470.50001119822264">哪一个</text></g></g><g id="minder_node12"><g id="node_expander11" style="cursor: pointer;" display="none"><path id="kity_path_116" fill="white" stroke="gray" d="M557.5000124052167,231.50000584870577A6,6,0,1,1,545.5000124052167,231.50000584870577A6,6,0,1,1,557.5000124052167,231.50000584870577"></path><path id="kity_path_117" fill="none" stroke="gray"></path></g><path id="node_outline12" fill="none" stroke="none" d="M562.5000126436353,220.50000584870577h122a5,5,0,0,1,5,5v12a5,5,0,0,1,-5,5h-122a5,5,0,0,1,-5,-5v-12a5,5,0,0,1,5,-5z" stroke-width="3"></path><g id="node_text12" fill="black"><text id="kity_text_113" text-rendering="inherit" font-size="12" dy=".8em" y="223.70000582188368" x="567.5000126436353">主语/宾语/表语/定语</text></g></g><g id="minder_node13"><g id="node_expander12" style="cursor: pointer;"><path id="kity_path_124" fill="white" stroke="gray" d="M464.5000110194087,297.5000068321824A6,6,0,1,1,452.5000110194087,297.5000068321824A6,6,0,1,1,464.5000110194087,297.5000068321824"></path><path id="kity_path_125" fill="none" stroke="gray" d="M454.0000110194087,297.5000068321824L463.0000110194087,297.5000068321824"></path></g><path id="node_outline13" fill="none" stroke="none" d="M469.5000112578273,286.5000068321824h35a5,5,0,0,1,5,5v12a5,5,0,0,1,-5,5h-35a5,5,0,0,1,-5,-5v-12a5,5,0,0,1,5,-5z" stroke-width="3"></path><g id="node_text13" fill="black"><text id="kity_text_121" text-rendering="inherit" font-size="12" dy=".8em" y="289.7000068053603" x="474.5000112578273">谁的</text></g></g><g id="minder_node15"><g id="node_expander14" style="cursor: pointer;" display="none"><path id="kity_path_140" fill="white" stroke="gray" d="M549.5000122860074,297.5000068321824A6,6,0,1,1,537.5000122860074,297.5000068321824A6,6,0,1,1,549.5000122860074,297.5000068321824"></path><path id="kity_path_141" fill="none" stroke="gray"></path></g><path id="node_outline15" fill="none" stroke="none" d="M554.500012524426,286.5000068321824h36a5,5,0,0,1,5,5v12a5,5,0,0,1,-5,5h-36a5,5,0,0,1,-5,-5v-12a5,5,0,0,1,5,-5z" stroke-width="3"></path><g id="node_text15" fill="black"><text id="kity_text_137" text-rendering="inherit" font-size="12" dy=".8em" y="289.7000068053603" x="559.500012524426">定语</text></g></g><g id="minder_node16"><g id="node_expander15" style="cursor: pointer;" display="none"><path id="kity_path_148" fill="white" stroke="gray" d="M536.5000120922923,165.50000486522913A6,6,0,1,1,524.5000120922923,165.50000486522913A6,6,0,1,1,536.5000120922923,165.50000486522913"></path><path id="kity_path_149" fill="none" stroke="gray"></path></g><path id="node_outline16" fill="none" stroke="none" d="M541.5000123307109,154.50000486522913h36a5,5,0,0,1,5,5v12a5,5,0,0,1,-5,5h-36a5,5,0,0,1,-5,-5v-12a5,5,0,0,1,5,-5z" stroke-width="3"></path><g id="node_text16" fill="black"><text id="kity_text_145" text-rendering="inherit" font-size="12" dy=".8em" y="157.70000483840704" x="546.5000123307109">宾语</text></g></g><g id="minder_node17"><g id="node_expander16" style="cursor: pointer;" display="none"><path id="kity_path_156" fill="white" stroke="gray" d="M522.500011883676,99.50000388175249A6,6,0,1,1,510.50001188367605,99.50000388175249A6,6,0,1,1,522.500011883676,99.50000388175249"></path><path id="kity_path_157" fill="none" stroke="gray"></path></g><path id="node_outline17" fill="none" stroke="none" d="M527.5000121220946,88.50000388175249h93a5,5,0,0,1,5,5v12a5,5,0,0,1,-5,5h-93a5,5,0,0,1,-5,-5v-12a5,5,0,0,1,5,-5z" stroke-width="3"></path><g id="node_text17" fill="black"><text id="kity_text_153" text-rendering="inherit" font-size="12" dy=".8em" y="91.7000038549304" x="532.5000121220946">主语/宾语/表语</text></g></g><g id="minder_node18"><g id="node_expander17" style="cursor: pointer;"><path id="kity_path_164" fill="white" stroke="gray" d="M339.50000915676355,363.50000781565905A6,6,0,1,1,327.50000915676355,363.50000781565905A6,6,0,1,1,339.50000915676355,363.50000781565905"></path><path id="kity_path_165" fill="none" stroke="gray" d="M329.00000915676355,363.50000781565905L338.00000915676355,363.50000781565905"></path></g><path id="node_outline18" fill="rgb(238, 243, 246)" stroke="rgb(115, 161, 191)" d="M343.5000095590949,350.50000781565905h97a3,3,0,0,1,3,3v20a3,3,0,0,1,-3,3h-97a3,3,0,0,1,-3,-3v-20a3,3,0,0,1,3,-3z" stroke-width="1"></path><g id="node_text18" fill="black"><text id="kity_text_161" text-rendering="inherit" font-size="14" dy=".8em" y="354.4000077843666" x="360.5000095590949">whatever</text></g></g><g id="minder_node19"><g id="node_expander18" style="cursor: pointer;"><path id="kity_path_172" fill="white" stroke="gray" d="M483.50001130253077,363.50000781565905A6,6,0,1,1,471.50001130253077,363.50000781565905A6,6,0,1,1,483.50001130253077,363.50000781565905"></path><path id="kity_path_173" fill="none" stroke="gray" d="M473.00001130253077,363.50000781565905L482.00001130253077,363.50000781565905"></path></g><path id="node_outline19" fill="none" stroke="none" d="M488.50001154094934,352.50000781565905h58a5,5,0,0,1,5,5v12a5,5,0,0,1,-5,5h-58a5,5,0,0,1,-5,-5v-12a5,5,0,0,1,5,-5z" stroke-width="3"></path><g id="node_text19" fill="black"><text id="kity_text_169" text-rendering="inherit" font-size="12" dy=".8em" y="355.70000778883696" x="493.50001154094934">无论什么</text></g></g><g id="minder_node21"><g id="node_expander20" style="cursor: pointer;" display="none"><path id="kity_path_188" fill="white" stroke="gray" d="M591.5000129118562,363.50000781565905A6,6,0,1,1,579.5000129118562,363.50000781565905A6,6,0,1,1,591.5000129118562,363.50000781565905"></path><path id="kity_path_189" fill="none" stroke="gray"></path></g><path id="node_outline21" fill="none" stroke="none" d="M596.5000131502748,352.50000781565905h93a5,5,0,0,1,5,5v12a5,5,0,0,1,-5,5h-93a5,5,0,0,1,-5,-5v-12a5,5,0,0,1,5,-5z" stroke-width="3"></path><g id="node_text21" fill="black"><text id="kity_text_185" text-rendering="inherit" font-size="12" dy=".8em" y="355.70000778883696" x="601.5000131502748">主语/宾语/表语</text></g></g><g id="minder_node22"><g id="node_expander21" style="cursor: pointer;"><path id="kity_path_196" fill="white" stroke="gray" d="M339.50000915676355,429.5000087991357A6,6,0,1,1,327.50000915676355,429.5000087991357A6,6,0,1,1,339.50000915676355,429.5000087991357"></path><path id="kity_path_197" fill="none" stroke="gray" d="M329.00000915676355,429.5000087991357L338.00000915676355,429.5000087991357"></path></g><path id="node_outline22" fill="rgb(238, 243, 246)" stroke="rgb(115, 161, 191)" d="M343.5000095590949,416.5000087991357h93a3,3,0,0,1,3,3v20a3,3,0,0,1,-3,3h-93a3,3,0,0,1,-3,-3v-20a3,3,0,0,1,3,-3z" stroke-width="1"></path><g id="node_text22" fill="black"><text id="kity_text_193" text-rendering="inherit" font-size="14" dy=".8em" y="420.40000876784325" x="360.5000095590949">whoever</text></g></g><g id="minder_node23"><g id="node_expander22" style="cursor: pointer;"><path id="kity_path_204" fill="white" stroke="gray" d="M479.5000112429261,429.5000087991357A6,6,0,1,1,467.5000112429261,429.5000087991357A6,6,0,1,1,479.5000112429261,429.5000087991357"></path><path id="kity_path_205" fill="none" stroke="gray" d="M469.0000112429261,429.5000087991357L478.0000112429261,429.5000087991357"></path></g><path id="node_outline23" fill="none" stroke="none" d="M484.5000114813447,418.5000087991357h46a5,5,0,0,1,5,5v12a5,5,0,0,1,-5,5h-46a5,5,0,0,1,-5,-5v-12a5,5,0,0,1,5,-5z" stroke-width="3"></path><g id="node_text23" fill="black"><text id="kity_text_201" text-rendering="inherit" font-size="12" dy=".8em" y="421.7000087723136" x="489.5000114813447">无论谁</text></g></g><g id="minder_node24"><g id="node_expander23" style="cursor: pointer;" display="none"><path id="kity_path_212" fill="white" stroke="gray" d="M575.5000126734376,429.5000087991357A6,6,0,1,1,563.5000126734376,429.5000087991357A6,6,0,1,1,575.5000126734376,429.5000087991357"></path><path id="kity_path_213" fill="none" stroke="gray"></path></g><path id="node_outline24" fill="none" stroke="none" d="M580.5000129118562,418.5000087991357h93a5,5,0,0,1,5,5v12a5,5,0,0,1,-5,5h-93a5,5,0,0,1,-5,-5v-12a5,5,0,0,1,5,-5z" stroke-width="3"></path><g id="node_text24" fill="black"><text id="kity_text_209" text-rendering="inherit" font-size="12" dy=".8em" y="421.7000087723136" x="585.5000129118562">主语/宾语/表语</text></g></g><g id="minder_node27"><g id="node_expander26" style="cursor: pointer;"><path id="kity_path_236" fill="white" stroke="gray" d="M339.50000915676355,561.500010766089A6,6,0,1,1,327.50000915676355,561.500010766089A6,6,0,1,1,339.50000915676355,561.500010766089"></path><path id="kity_path_237" fill="none" stroke="gray" d="M329.00000915676355,561.500010766089L338.00000915676355,561.500010766089"></path></g><path id="node_outline27" fill="rgb(238, 243, 246)" stroke="rgb(115, 161, 191)" d="M343.5000095590949,548.500010766089h103a3,3,0,0,1,3,3v20a3,3,0,0,1,-3,3h-103a3,3,0,0,1,-3,-3v-20a3,3,0,0,1,3,-3z" stroke-width="1"></path><g id="node_text27" fill="black"><text id="kity_text_233" text-rendering="inherit" font-size="14" dy=".8em" y="552.4000107347965" x="360.5000095590949">whichever</text></g></g><g id="minder_node29"><g id="node_expander28" style="cursor: pointer;"><path id="kity_path_252" fill="white" stroke="gray" d="M489.50001139193773,561.500010766089A6,6,0,1,1,477.50001139193773,561.500010766089A6,6,0,1,1,489.50001139193773,561.500010766089"></path><path id="kity_path_253" fill="none" stroke="gray" d="M479.00001139193773,561.500010766089L488.00001139193773,561.500010766089"></path></g><path id="node_outline29" fill="none" stroke="none" d="M494.5000116303563,550.500010766089h71a5,5,0,0,1,5,5v12a5,5,0,0,1,-5,5h-71a5,5,0,0,1,-5,-5v-12a5,5,0,0,1,5,-5z" stroke-width="3"></path><g id="node_text29" fill="black"><text id="kity_text_249" text-rendering="inherit" font-size="12" dy=".8em" y="553.7000107392669" x="499.5000116303563">无论哪一个</text></g></g><g id="minder_node30"><g id="node_expander29" style="cursor: pointer;" display="none"><path id="kity_path_260" fill="white" stroke="gray" d="M610.5000131949782,561.500010766089A6,6,0,1,1,598.5000131949782,561.500010766089A6,6,0,1,1,610.5000131949782,561.500010766089"></path><path id="kity_path_261" fill="none" stroke="gray"></path></g><path id="node_outline30" fill="none" stroke="none" d="M615.5000134333968,550.500010766089h93a5,5,0,0,1,5,5v12a5,5,0,0,1,-5,5h-93a5,5,0,0,1,-5,-5v-12a5,5,0,0,1,5,-5z" stroke-width="3"></path><g id="node_text30" fill="black"><text id="kity_text_257" text-rendering="inherit" font-size="12" dy=".8em" y="553.7000107392669" x="620.5000134333968">主语/宾语/表语</text></g></g><g id="minder_node32"><g id="node_expander31" style="cursor: pointer;"><path id="kity_path_276" fill="white" stroke="gray" d="M339.50000915676355,495.5000097826123A6,6,0,1,1,327.50000915676355,495.5000097826123A6,6,0,1,1,339.50000915676355,495.5000097826123"></path><path id="kity_path_277" fill="none" stroke="gray" d="M329.00000915676355,495.5000097826123L338.00000915676355,495.5000097826123"></path></g><path id="node_outline32" fill="rgb(238, 243, 246)" stroke="rgb(115, 161, 191)" d="M343.5000095590949,482.5000097826123h106a3,3,0,0,1,3,3v20a3,3,0,0,1,-3,3h-106a3,3,0,0,1,-3,-3v-20a3,3,0,0,1,3,-3z" stroke-width="1"></path><g id="node_text32" fill="black"><text id="kity_text_273" text-rendering="inherit" font-size="14" dy=".8em" y="486.4000097513199" x="360.5000095590949">whomever</text></g></g><g id="minder_node33"><g id="node_expander32" style="cursor: pointer;" display="none"><path id="kity_path_284" fill="white" stroke="gray" d="M492.5000114366412,495.5000097826123A6,6,0,1,1,480.5000114366412,495.5000097826123A6,6,0,1,1,492.5000114366412,495.5000097826123"></path><path id="kity_path_285" fill="none" stroke="gray" d="M482.0000114366412,495.5000097826123L491.0000114366412,495.5000097826123"></path></g><path id="node_outline33" fill="none" stroke="none" d="M497.5000116750598,484.5000097826123h46a5,5,0,0,1,5,5v12a5,5,0,0,1,-5,5h-46a5,5,0,0,1,-5,-5v-12a5,5,0,0,1,5,-5z" stroke-width="3"></path><g id="node_text33" fill="black"><text id="kity_text_281" text-rendering="inherit" font-size="12" dy=".8em" y="487.70000975579023" x="502.5000116750598">无论谁</text></g></g></g></g></svg>