<svg id="kity_svg_6" xmlns="http://www.w3.org/2000/svg" xmlns:xlink="http://www.w3.org/1999/xlink" version="1.1" width="744" height="132" style="background: rgb(251, 251, 251); visibility: visible;" viewBox="0 0 744 132"><defs id="kity_defs_7"><linearGradient id="kity_linearGradient_17" x1="0" y1="0" x2="0" y2="1"><stop id="kity_stop_18" offset="0" stop-color="rgb(255, 255, 255)"></stop><stop id="kity_stop_19" offset="1" stop-color="rgb(204, 204, 204)"></stop></linearGradient><marker id="kity_marker_2" orient="auto" refX="6" refY="0" viewBox="-7 -7 14 14" markerWidth="7" markerHeight="7" markerUnits="userSpaceOnUse"><path id="kity_path_3" fill="rgb(115, 191, 118)" stroke="none" d="M6,0A6,6,0,1,1,-6,0A6,6,0,1,1,6,0"></path></marker></defs><g id="kity_g_8"><g id="minder1" text-rendering="optimize-speed"><g id="minder_connect_group1"><path id="kity_path_31" fill="none" stroke="rgb(115, 191, 118)" stroke-width="1" d="M68.50001525133848,66.50000690668821A166,33,0,0,1,234.50001525133848,33.50000690668821"></path><path id="kity_path_33" fill="none" stroke="rgb(115, 191, 118)" stroke-width="1" d="M332.5000152513385,33.50000690668821C352.5000152513385,33.50000690668821,352.5000152513385,33.50000690668821,372.5000152513385,33.50000690668821"></path><path id="kity_path_35" fill="none" stroke="rgb(115, 191, 118)" stroke-width="1" d="M68.50001525133848,66.50000690668821A166,33,0,0,0,234.50001525133848,99.50000690668821"></path><path id="kity_path_37" fill="none" stroke="rgb(115, 191, 118)" stroke-width="1" d="M332.5000152513385,99.50000690668821C352.5000152513385,99.50000690668821,352.5000152513385,99.50000690668821,372.5000152513385,99.50000690668821"></path></g><g id="minder_node1"><path id="node_outline1" fill="rgb(115, 191, 118)" stroke="rgb(57, 96, 58)" d="M25.500015251338482,46.50000690668821h86a5,5,0,0,1,5,5v30a5,5,0,0,1,-5,5h-86a5,5,0,0,1,-5,-5v-30a5,5,0,0,1,5,-5z" stroke-width="3"></path><g id="node_text1" fill="white"><text id="kity_text_22" text-rendering="inherit" font-size="16" dy=".8em" y="56.10000687092543" x="44.50001525133848">关系词</text></g></g><g id="kity_g_12"><path id="kity_path_13" fill="none" stroke="none" d="M44.50001525133848,66.50000690668821h0v0h0z"></path></g><g id="kity_g_14"><path id="kity_path_15" fill="none" stroke="none" d="M44.50001525133848,66.50000690668821h0v0h0z"></path><path id="kity_path_16" fill="none" stroke="none"></path></g><g id="minder_node2"><g id="node_expander2" style="cursor: pointer;"><path id="kity_path_54" fill="white" stroke="gray" d="M235.5000180080533,33.500006414949894A6,6,0,1,1,223.5000180080533,33.500006414949894A6,6,0,1,1,235.5000180080533,33.500006414949894"></path><path id="kity_path_55" fill="none" stroke="gray" d="M225.0000180080533,33.500006414949894L234.0000180080533,33.500006414949894"></path></g><path id="node_outline3" fill="rgb(238, 246, 238)" stroke="rgb(115, 191, 118)" d="M239.50001841038465,20.500006414949894h90a3,3,0,0,1,3,3v20a3,3,0,0,1,-3,3h-90a3,3,0,0,1,-3,-3v-20a3,3,0,0,1,3,-3z" stroke-width="1"></path><g id="node_text3" fill="black"><text id="kity_text_41" text-rendering="inherit" font-size="14" dy=".8em" y="24.400006383657455" x="256.50001841038465">关系代词</text></g></g><g id="minder_node3"><g id="node_expander1" display="none" style="cursor: pointer;"><path id="kity_path_51" fill="white" stroke="gray" d="M372.5000200495124,33.500006414949894A6,6,0,1,1,360.5000200495124,33.500006414949894A6,6,0,1,1,372.5000200495124,33.500006414949894"></path><path id="kity_path_52" fill="none" stroke="gray"></path></g><path id="node_outline2" fill="none" stroke="none" d="M377.50002028793097,22.500006414949894h342a5,5,0,0,1,5,5v12a5,5,0,0,1,-5,5h-342a5,5,0,0,1,-5,-5v-12a5,5,0,0,1,5,-5z"></path><g id="node_text2" fill="black"><text id="kity_text_39" text-rendering="inherit" font-size="12" dy=".8em" y="25.700006388127804" x="382.50002028793097">that，which，whose，who,whom(从句不完整时选关系代词)</text></g></g><g id="minder_node4"><g id="node_expander4" style="cursor: pointer;"><path id="kity_path_60" fill="white" stroke="gray" d="M235.5000180080533,99.50000739842653A6,6,0,1,1,223.5000180080533,99.50000739842653A6,6,0,1,1,235.5000180080533,99.50000739842653"></path><path id="kity_path_61" fill="none" stroke="gray" d="M225.0000180080533,99.50000739842653L234.0000180080533,99.50000739842653"></path></g><path id="node_outline5" fill="rgb(238, 246, 238)" stroke="rgb(115, 191, 118)" d="M239.50001841038465,86.50000739842653h90a3,3,0,0,1,3,3v20a3,3,0,0,1,-3,3h-90a3,3,0,0,1,-3,-3v-20a3,3,0,0,1,3,-3z" stroke-width="1"></path><g id="node_text5" fill="black"><text id="kity_text_45" text-rendering="inherit" font-size="14" dy=".8em" y="90.4000073671341" x="256.50001841038465">关系副词</text></g></g><g id="minder_node5"><g id="node_expander3" display="none" style="cursor: pointer;"><path id="kity_path_57" fill="white" stroke="gray" d="M372.5000200495124,99.50000739842653A6,6,0,1,1,360.5000200495124,99.50000739842653A6,6,0,1,1,372.5000200495124,99.50000739842653"></path><path id="kity_path_58" fill="none" stroke="gray"></path></g><path id="node_outline4" fill="none" stroke="none" d="M377.50002028793097,88.50000739842653h234a5,5,0,0,1,5,5v12a5,5,0,0,1,-5,5h-234a5,5,0,0,1,-5,-5v-12a5,5,0,0,1,5,-5z"></path><g id="node_text4" fill="black"><text id="kity_text_43" text-rendering="inherit" font-size="12" dy=".8em" y="91.70000737160444" x="382.50002028793097">when,where,why(从句完整时选关系副词)</text></g></g></g></g></svg>