<svg id="kity_svg_6" xmlns="http://www.w3.org/2000/svg" xmlns:xlink="http://www.w3.org/1999/xlink" version="1.1" width="497" height="421" style="background: rgb(251, 251, 251); visibility: visible;" viewBox="0 0 497 421"><defs id="kity_defs_7"><linearGradient id="kity_linearGradient_17" x1="0" y1="0" x2="0" y2="1"><stop id="kity_stop_18" offset="0" stop-color="rgb(255, 255, 255)"></stop><stop id="kity_stop_19" offset="1" stop-color="rgb(204, 204, 204)"></stop></linearGradient><marker id="kity_marker_2" orient="auto" refX="6" refY="0" viewBox="-7 -7 14 14" markerWidth="7" markerHeight="7" markerUnits="userSpaceOnUse"><path id="kity_path_3" fill="rgb(115, 161, 191)" stroke="none" d="M6,0A6,6,0,1,1,-6,0A6,6,0,1,1,6,0"></path></marker></defs><g id="kity_g_8"><g id="minder1" text-rendering="optimize-speed"><g id="minder_connect_group1"><path id="kity_path_31" fill="none" stroke="rgb(115, 161, 191)" stroke-width="1" d="M248.50000642985106,60.500005178153515v30h-186.5V110.50000517815351"></path><path id="kity_path_39" fill="none" stroke="rgb(115, 161, 191)" stroke-width="1" d="M248.50000642985106,60.500005178153515v30h-43V110.50000517815351"></path><path id="kity_path_47" fill="none" stroke="rgb(115, 161, 191)" stroke-width="1" d="M248.50000642985106,60.500005178153515v30h138V110.50000517815351"></path><path id="kity_path_63" fill="none" stroke="rgb(115, 161, 191)" stroke-width="1" d="M40.500006429851055,136.50000517815351V182.50000517815351L60.500006429851055,182.50000517815351"></path><path id="kity_path_79" fill="none" stroke="rgb(115, 161, 191)" stroke-width="1" d="M40.500006429851055,136.50000517815351V234.50000517815351L60.500006429851055,234.50000517815351"></path><path id="kity_path_87" fill="none" stroke="rgb(115, 161, 191)" stroke-width="1" d="M40.500006429851055,136.50000517815351V286.5000051781535L60.500006429851055,286.5000051781535"></path><path id="kity_path_95" fill="none" stroke="rgb(115, 161, 191)" stroke-width="1" d="M40.500006429851055,136.50000517815351V338.5000051781535L60.500006429851055,338.5000051781535"></path><path id="kity_path_103" fill="none" stroke="rgb(115, 161, 191)" stroke-width="1" d="M40.500006429851055,136.50000517815351V390.5000051781535L60.500006429851055,390.5000051781535"></path><path id="kity_path_111" fill="none" stroke="rgb(115, 161, 191)" stroke-width="1" d="M177.50000642985106,136.50000517815351V182.50000517815351L197.50000642985106,182.50000517815351"></path><path id="kity_path_119" fill="none" stroke="rgb(115, 161, 191)" stroke-width="1" d="M177.50000642985106,136.50000517815351V234.50000517815351L197.50000642985106,234.50000517815351"></path><path id="kity_path_127" fill="none" stroke="rgb(115, 161, 191)" stroke-width="1" d="M177.50000642985106,136.50000517815351V286.5000051781535L197.50000642985106,286.5000051781535"></path><path id="kity_path_135" fill="none" stroke="rgb(115, 161, 191)" stroke-width="1" d="M177.50000642985106,136.50000517815351V338.5000051781535L197.50000642985106,338.5000051781535"></path><path id="kity_path_143" fill="none" stroke="rgb(115, 161, 191)" stroke-width="1" d="M177.50000642985106,136.50000517815351V390.5000051781535L197.50000642985106,390.5000051781535"></path><path id="kity_path_151" fill="none" stroke="rgb(115, 161, 191)" stroke-width="1" d="M315.50000642985106,136.50000517815351V182.50000517815351L335.50000642985106,182.50000517815351"></path><path id="kity_path_167" fill="none" stroke="rgb(115, 161, 191)" stroke-width="1" d="M315.50000642985106,136.50000517815351V234.50000517815351L335.50000642985106,234.50000517815351"></path><path id="kity_path_175" fill="none" stroke="rgb(115, 161, 191)" stroke-width="1" d="M315.50000642985106,136.50000517815351V286.5000051781535L335.50000642985106,286.5000051781535"></path><path id="kity_path_183" fill="none" stroke="rgb(115, 161, 191)" stroke-width="1" d="M315.50000642985106,136.50000517815351V338.5000051781535L335.50000642985106,338.5000051781535"></path><path id="kity_path_191" fill="none" stroke="rgb(115, 161, 191)" stroke-width="1" d="M315.50000642985106,136.50000517815351V390.5000051781535L335.50000642985106,390.5000051781535"></path></g><g id="minder_node1"><path id="node_outline1" fill="rgb(115, 161, 191)" stroke="rgb(115, 161, 191)" d="M141.50000642985106,20.500005178153515h214a5,5,0,0,1,5,5v30a5,5,0,0,1,-5,5h-214a5,5,0,0,1,-5,-5v-30a5,5,0,0,1,5,-5z" stroke-width="3"></path><g id="node_text1" fill="white"><text id="kity_text_22" text-rendering="inherit" font-size="16" dy=".8em" y="30.100005142390728" x="160.50000642985106">关系代词引导的定语从句</text></g></g><g id="kity_g_12"><path id="kity_path_13" fill="none" stroke="none" d="M160.50000642985106,40.500005178153515h0v0h0z"></path></g><g id="kity_g_14"><path id="kity_path_15" fill="none" stroke="none" d="M160.50000642985106,40.500005178153515h0v0h0z"></path><path id="kity_path_16" fill="none" stroke="none"></path></g><g id="minder_node2"><g id="node_expander1" style="cursor: pointer;"><path id="kity_path_36" fill="white" stroke="gray" d="M68.00000496208668,103.50000611692667A6,6,0,1,1,56.00000496208668,103.50000611692667A6,6,0,1,1,68.00000496208668,103.50000611692667"></path><path id="kity_path_37" fill="none" stroke="gray" d="M57.50000496208668,103.50000611692667L66.50000496208668,103.50000611692667"></path></g><path id="node_outline2" fill="rgb(238, 243, 246)" stroke="rgb(115, 161, 191)" d="M23.500004641711712,110.5000064149499h77a3,3,0,0,1,3,3v20a3,3,0,0,1,-3,3h-77a3,3,0,0,1,-3,-3v-20a3,3,0,0,1,3,-3z" stroke-width="1"></path><g id="node_text2" fill="black"><text id="kity_text_33" text-rendering="inherit" font-size="14" dy=".8em" y="114.40000638365746" x="40.50000464171171">先行词</text></g></g><g id="minder_node3"><g id="node_expander2" style="cursor: pointer;"><path id="kity_path_44" fill="white" stroke="gray" d="M211.5000071004033,103.50000611692667A6,6,0,1,1,199.5000071004033,103.50000611692667A6,6,0,1,1,211.5000071004033,103.50000611692667"></path><path id="kity_path_45" fill="none" stroke="gray" d="M201.0000071004033,103.50000611692667L210.0000071004033,103.50000611692667"></path></g><path id="node_outline3" fill="rgb(238, 243, 246)" stroke="rgb(115, 161, 191)" d="M160.5000066831708,110.5000064149499h90a3,3,0,0,1,3,3v20a3,3,0,0,1,-3,3h-90a3,3,0,0,1,-3,-3v-20a3,3,0,0,1,3,-3z" stroke-width="1"></path><g id="node_text3" fill="black"><text id="kity_text_41" text-rendering="inherit" font-size="14" dy=".8em" y="114.40000638365746" x="177.5000066831708">关系代词</text></g></g><g id="minder_node4"><g id="node_expander3" style="cursor: pointer;"><path id="kity_path_52" fill="white" stroke="gray" d="M392.5000097975135,103.50000611692667A6,6,0,1,1,380.5000097975135,103.50000611692667A6,6,0,1,1,392.5000097975135,103.50000611692667"></path><path id="kity_path_53" fill="none" stroke="gray" d="M382.0000097975135,103.50000611692667L391.0000097975135,103.50000611692667"></path></g><path id="node_outline4" fill="rgb(238, 243, 246)" stroke="rgb(115, 161, 191)" d="M298.50000873953104,110.5000064149499h176a3,3,0,0,1,3,3v20a3,3,0,0,1,-3,3h-176a3,3,0,0,1,-3,-3v-20a3,3,0,0,1,3,-3z" stroke-width="1"></path><g id="node_text4" fill="black"><text id="kity_text_49" text-rendering="inherit" font-size="14" dy=".8em" y="114.40000638365746" x="315.50000873953104">先行词仔从句中的成分</text></g></g><g id="minder_node6"><g id="node_expander5" style="cursor: pointer;" display="none"><path id="kity_path_68" fill="white" stroke="gray" d="M60.50000485032797,182.5000072941184A6,6,0,1,1,48.50000485032797,182.5000072941184A6,6,0,1,1,60.50000485032797,182.5000072941184"></path><path id="kity_path_69" fill="none" stroke="gray" d="M50.00000485032797,182.5000072941184L59.00000485032797,182.5000072941184"></path></g><path id="node_outline6" fill="none" stroke="none" d="M65.50000508874655,171.5000072941184h24a5,5,0,0,1,5,5v12a5,5,0,0,1,-5,5h-24a5,5,0,0,1,-5,-5v-12a5,5,0,0,1,5,-5z" stroke-width="3"></path><g id="node_text6" fill="black"><text id="kity_text_65" text-rendering="inherit" font-size="12" dy=".8em" y="174.70000726729631" x="70.50000508874655">人</text></g></g><g id="minder_node8"><g id="node_expander7" style="cursor: pointer;" display="none"><path id="kity_path_84" fill="white" stroke="gray" d="M60.50000485032797,234.5000080689788A6,6,0,1,1,48.50000485032797,234.5000080689788A6,6,0,1,1,60.50000485032797,234.5000080689788"></path><path id="kity_path_85" fill="none" stroke="gray"></path></g><path id="node_outline8" fill="none" stroke="none" d="M65.50000508874655,223.5000080689788h24a5,5,0,0,1,5,5v12a5,5,0,0,1,-5,5h-24a5,5,0,0,1,-5,-5v-12a5,5,0,0,1,5,-5z" stroke-width="3"></path><g id="node_text8" fill="black"><text id="kity_text_81" text-rendering="inherit" font-size="12" dy=".8em" y="226.7000080421567" x="70.50000508874655">人</text></g></g><g id="minder_node9"><g id="node_expander8" style="cursor: pointer;" display="none"><path id="kity_path_92" fill="white" stroke="gray" d="M60.50000485032797,286.50000884383917A6,6,0,1,1,48.50000485032797,286.50000884383917A6,6,0,1,1,60.50000485032797,286.50000884383917"></path><path id="kity_path_93" fill="none" stroke="gray"></path></g><path id="node_outline9" fill="none" stroke="none" d="M65.50000508874655,275.50000884383917h23a5,5,0,0,1,5,5v12a5,5,0,0,1,-5,5h-23a5,5,0,0,1,-5,-5v-12a5,5,0,0,1,5,-5z" stroke-width="3"></path><g id="node_text9" fill="black"><text id="kity_text_89" text-rendering="inherit" font-size="12" dy=".8em" y="278.7000088170171" x="70.50000508874655">物</text></g></g><g id="minder_node10"><g id="node_expander9" style="cursor: pointer;" display="none"><path id="kity_path_100" fill="white" stroke="gray" d="M60.50000485032797,338.50000961869955A6,6,0,1,1,48.50000485032797,338.50000961869955A6,6,0,1,1,60.50000485032797,338.50000961869955"></path><path id="kity_path_101" fill="none" stroke="gray"></path></g><path id="node_outline10" fill="none" stroke="none" d="M65.50000508874655,327.50000961869955h47a5,5,0,0,1,5,5v12a5,5,0,0,1,-5,5h-47a5,5,0,0,1,-5,-5v-12a5,5,0,0,1,5,-5z" stroke-width="3"></path><g id="node_text10" fill="black"><text id="kity_text_97" text-rendering="inherit" font-size="12" dy=".8em" y="330.70000959187746" x="70.50000508874655">人或物</text></g></g><g id="minder_node11"><g id="node_expander10" style="cursor: pointer;" display="none"><path id="kity_path_108" fill="white" stroke="gray" d="M60.50000485032797,390.50001039355993A6,6,0,1,1,48.50000485032797,390.50001039355993A6,6,0,1,1,60.50000485032797,390.50001039355993"></path><path id="kity_path_109" fill="none" stroke="gray"></path></g><path id="node_outline11" fill="none" stroke="none" d="M65.50000508874655,379.50001039355993h47a5,5,0,0,1,5,5v12a5,5,0,0,1,-5,5h-47a5,5,0,0,1,-5,-5v-12a5,5,0,0,1,5,-5z" stroke-width="3"></path><g id="node_text11" fill="black"><text id="kity_text_105" text-rendering="inherit" font-size="12" dy=".8em" y="382.70001036673784" x="70.50000508874655">人或物</text></g></g><g id="minder_node12"><g id="node_expander11" style="cursor: pointer;" display="none"><path id="kity_path_116" fill="white" stroke="gray" d="M197.50000689178705,182.5000072941184A6,6,0,1,1,185.50000689178705,182.5000072941184A6,6,0,1,1,197.50000689178705,182.5000072941184"></path><path id="kity_path_117" fill="none" stroke="gray"></path></g><path id="node_outline12" fill="none" stroke="none" d="M202.50000713020563,171.5000072941184h36a5,5,0,0,1,5,5v12a5,5,0,0,1,-5,5h-36a5,5,0,0,1,-5,-5v-12a5,5,0,0,1,5,-5z" stroke-width="3"></path><g id="node_text12" fill="black"><text id="kity_text_113" text-rendering="inherit" font-size="12" dy=".8em" y="174.70000726729631" x="207.50000713020563">who</text></g></g><g id="minder_node13"><g id="node_expander12" style="cursor: pointer;" display="none"><path id="kity_path_124" fill="white" stroke="gray" d="M197.50000689178705,234.5000080689788A6,6,0,1,1,185.50000689178705,234.5000080689788A6,6,0,1,1,197.50000689178705,234.5000080689788"></path><path id="kity_path_125" fill="none" stroke="gray"></path></g><path id="node_outline13" fill="none" stroke="none" d="M202.50000713020563,223.5000080689788h47a5,5,0,0,1,5,5v12a5,5,0,0,1,-5,5h-47a5,5,0,0,1,-5,-5v-12a5,5,0,0,1,5,-5z" stroke-width="3"></path><g id="node_text13" fill="black"><text id="kity_text_121" text-rendering="inherit" font-size="12" dy=".8em" y="226.7000080421567" x="207.50000713020563">whom</text></g></g><g id="minder_node14"><g id="node_expander13" style="cursor: pointer;" display="none"><path id="kity_path_132" fill="white" stroke="gray" d="M197.50000689178705,286.50000884383917A6,6,0,1,1,185.50000689178705,286.50000884383917A6,6,0,1,1,197.50000689178705,286.50000884383917"></path><path id="kity_path_133" fill="none" stroke="gray"></path></g><path id="node_outline14" fill="none" stroke="none" d="M202.50000713020563,275.50000884383917h44a5,5,0,0,1,5,5v12a5,5,0,0,1,-5,5h-44a5,5,0,0,1,-5,-5v-12a5,5,0,0,1,5,-5z" stroke-width="3"></path><g id="node_text14" fill="black"><text id="kity_text_129" text-rendering="inherit" font-size="12" dy=".8em" y="278.7000088170171" x="207.50000713020563">which</text></g></g><g id="minder_node15"><g id="node_expander14" style="cursor: pointer;" display="none"><path id="kity_path_140" fill="white" stroke="gray" d="M197.50000689178705,338.50000961869955A6,6,0,1,1,185.50000689178705,338.50000961869955A6,6,0,1,1,197.50000689178705,338.50000961869955"></path><path id="kity_path_141" fill="none" stroke="gray"></path></g><path id="node_outline15" fill="none" stroke="none" d="M202.50000713020563,327.50000961869955h48a5,5,0,0,1,5,5v12a5,5,0,0,1,-5,5h-48a5,5,0,0,1,-5,-5v-12a5,5,0,0,1,5,-5z" stroke-width="3"></path><g id="node_text15" fill="black"><text id="kity_text_137" text-rendering="inherit" font-size="12" dy=".8em" y="330.70000959187746" x="207.50000713020563">whose</text></g></g><g id="minder_node16"><g id="node_expander15" style="cursor: pointer;" display="none"><path id="kity_path_148" fill="white" stroke="gray" d="M197.50000689178705,390.50001039355993A6,6,0,1,1,185.50000689178705,390.50001039355993A6,6,0,1,1,197.50000689178705,390.50001039355993"></path><path id="kity_path_149" fill="none" stroke="gray"></path></g><path id="node_outline16" fill="none" stroke="none" d="M202.50000713020563,379.50001039355993h33a5,5,0,0,1,5,5v12a5,5,0,0,1,-5,5h-33a5,5,0,0,1,-5,-5v-12a5,5,0,0,1,5,-5z" stroke-width="3"></path><g id="node_text16" fill="black"><text id="kity_text_145" text-rendering="inherit" font-size="12" dy=".8em" y="382.70001036673784" x="207.50000713020563">that</text></g></g><g id="minder_node17"><g id="node_expander16" style="cursor: pointer;" display="none"><path id="kity_path_156" fill="white" stroke="gray" d="M335.5000089481473,182.5000072941184A6,6,0,1,1,323.5000089481473,182.5000072941184A6,6,0,1,1,335.5000089481473,182.5000072941184"></path><path id="kity_path_157" fill="none" stroke="gray" d="M325.0000089481473,182.5000072941184L334.0000089481473,182.5000072941184"></path></g><path id="node_outline17" fill="none" stroke="none" d="M340.5000091865659,171.5000072941184h71a5,5,0,0,1,5,5v12a5,5,0,0,1,-5,5h-71a5,5,0,0,1,-5,-5v-12a5,5,0,0,1,5,-5z" stroke-width="3"></path><g id="node_text17" fill="black"><text id="kity_text_153" text-rendering="inherit" font-size="12" dy=".8em" y="174.70000726729631" x="345.5000091865659">主语，宾语</text></g></g><g id="minder_node19"><g id="node_expander18" style="cursor: pointer;" display="none"><path id="kity_path_172" fill="white" stroke="gray" d="M335.5000089481473,234.5000080689788A6,6,0,1,1,323.5000089481473,234.5000080689788A6,6,0,1,1,335.5000089481473,234.5000080689788"></path><path id="kity_path_173" fill="none" stroke="gray"></path></g><path id="node_outline19" fill="none" stroke="none" d="M340.5000091865659,223.5000080689788h36a5,5,0,0,1,5,5v12a5,5,0,0,1,-5,5h-36a5,5,0,0,1,-5,-5v-12a5,5,0,0,1,5,-5z" stroke-width="3"></path><g id="node_text19" fill="black"><text id="kity_text_169" text-rendering="inherit" font-size="12" dy=".8em" y="226.7000080421567" x="345.5000091865659">宾语</text></g></g><g id="minder_node20"><g id="node_expander19" style="cursor: pointer;" display="none"><path id="kity_path_180" fill="white" stroke="gray" d="M335.5000089481473,286.50000884383917A6,6,0,1,1,323.5000089481473,286.50000884383917A6,6,0,1,1,335.5000089481473,286.50000884383917"></path><path id="kity_path_181" fill="none" stroke="gray"></path></g><path id="node_outline20" fill="none" stroke="none" d="M340.5000091865659,275.50000884383917h71a5,5,0,0,1,5,5v12a5,5,0,0,1,-5,5h-71a5,5,0,0,1,-5,-5v-12a5,5,0,0,1,5,-5z" stroke-width="3"></path><g id="node_text20" fill="black"><text id="kity_text_177" text-rendering="inherit" font-size="12" dy=".8em" y="278.7000088170171" x="345.5000091865659">主语，宾语</text></g></g><g id="minder_node21"><g id="node_expander20" style="cursor: pointer;" display="none"><path id="kity_path_188" fill="white" stroke="gray" d="M335.5000089481473,338.50000961869955A6,6,0,1,1,323.5000089481473,338.50000961869955A6,6,0,1,1,335.5000089481473,338.50000961869955"></path><path id="kity_path_189" fill="none" stroke="gray"></path></g><path id="node_outline21" fill="none" stroke="none" d="M340.5000091865659,327.50000961869955h36a5,5,0,0,1,5,5v12a5,5,0,0,1,-5,5h-36a5,5,0,0,1,-5,-5v-12a5,5,0,0,1,5,-5z" stroke-width="3"></path><g id="node_text21" fill="black"><text id="kity_text_185" text-rendering="inherit" font-size="12" dy=".8em" y="330.70000959187746" x="345.5000091865659">定语</text></g></g><g id="minder_node22"><g id="node_expander21" style="cursor: pointer;" display="none"><path id="kity_path_196" fill="white" stroke="gray" d="M335.5000089481473,390.50001039355993A6,6,0,1,1,323.5000089481473,390.50001039355993A6,6,0,1,1,335.5000089481473,390.50001039355993"></path><path id="kity_path_197" fill="none" stroke="gray"></path></g><path id="node_outline22" fill="none" stroke="none" d="M340.5000091865659,379.50001039355993h107a5,5,0,0,1,5,5v12a5,5,0,0,1,-5,5h-107a5,5,0,0,1,-5,-5v-12a5,5,0,0,1,5,-5z" stroke-width="3"></path><g id="node_text22" fill="black"><text id="kity_text_193" text-rendering="inherit" font-size="12" dy=".8em" y="382.70001036673784" x="345.5000091865659">主语，宾语，表语</text></g></g></g></g></svg>